<?xml version="1.0" encoding="utf-8"?>
<!-- Generator: Adobe Illustrator 22.0.1, SVG Export Plug-In . SVG Version: 6.00 Build 0)  -->
<svg version="1.1" xmlns="http://www.w3.org/2000/svg" xmlns:xlink="http://www.w3.org/1999/xlink" x="0px" y="0px"
	 viewBox="0 0 450 108" style="enable-background:new 0 0 450 108;" xml:space="preserve">
<style type="text/css">
	.st0{clip-path:url(#SVGID_2_);}
	.st1{fill:#E6E4E0;}
	.st2{fill:#B7E4A1;}
	.st3{fill:#79CFEE;}
	.st4{fill:#C0C0C0;}
	.st5{fill:#FFFFFF;}
	.st6{fill:#FDA263;}
	.st7{fill:#CDCAC6;}
	.st8{fill:#DCD9D6;}
	.st9{fill:none;}
	.st10{fill:#0086C3;}
	.st11{fill:url(#SVGID_3_);}
	.st12{fill:#2578B5;}
	.st13{fill:url(#SVGID_4_);}
	.st14{fill:#63A7E7;}
	.st15{fill:#78C257;}
</style>
<g id="图层_1">
</g>
<g id="foreground">
	<g>
		<defs>
			<circle id="SVGID_1_" cx="126" cy="54" r="36"/>
		</defs>
		<clipPath id="SVGID_2_">
			<use xlink:href="#SVGID_1_"  style="overflow:visible;"/>
		</clipPath>
		<g class="st0">
			<rect x="72" transform="matrix(-1 -1.224647e-16 1.224647e-16 -1 252 108)" class="st1" width="108" height="108"/>
			<path class="st2" d="M180,108V10h-45v36c0,9.4-7.6,17-17,17h-16v45H180z"/>
			<rect x="158" class="st3" width="8" height="108"/>
			<rect x="72" y="7" transform="matrix(-1 -1.224647e-16 1.224647e-16 -1 252 20)" class="st4" width="108" height="6"/>
			<rect x="72" y="8" transform="matrix(-1 -1.224647e-16 1.224647e-16 -1 252 20)" class="st5" width="108" height="4"/>
			<path class="st5" d="M139,0v48c0,10.5-8.5,19-19,19H72v-8h48c6.1,0,11-4.9,11-11V0H139z"/>
			<path class="st6" d="M138,0v48c0,9.9-8.1,18-18,18H72v-6h48c6.6,0,12-5.4,12-12V0H138z"/>
			<rect x="72" y="17" transform="matrix(-1 -1.224647e-16 1.224647e-16 -1 192 65)" class="st7" width="48" height="31"/>
			<rect x="72" y="18" transform="matrix(-1 -1.224647e-16 1.224647e-16 -1 191 65)" class="st8" width="47" height="29"/>
		</g>
		<g class="st0">
			<rect x="72" class="st9" width="108" height="108"/>
			<g>
				<g>
					<path class="st10" d="M72,0v108h108V0H72z M126,78c-13.3,0-24-10.7-24-24s10.7-24,24-24s24,10.7,24,24S139.3,78,126,78z"/>
				</g>
			</g>
			<g>
				<g>
					<linearGradient id="SVGID_3_" gradientUnits="userSpaceOnUse" x1="130.8569" y1="58.8569" x2="164.1837" y2="92.1837">
						<stop  offset="0" style="stop-color:#000000;stop-opacity:0.4"/>
						<stop  offset="1" style="stop-color:#000000;stop-opacity:0"/>
					</linearGradient>
					<path class="st11" d="M147.1,42.6C149,46,150,49.9,150,54c0,13.3-10.7,24-24,24c-4.1,0-8-1-11.4-2.9l33.3,33.3l32.5-32.5
						L147.1,42.6z"/>
				</g>
			</g>
			<polygon class="st12" points="180,27 90,108 180,108 			"/>
			<linearGradient id="SVGID_4_" gradientUnits="userSpaceOnUse" x1="142.9926" y1="74.6917" x2="176.125" y2="111.4891">
				<stop  offset="0" style="stop-color:#004D85;stop-opacity:0"/>
				<stop  offset="8.000000e-02" style="stop-color:#004D85;stop-opacity:0.5"/>
			</linearGradient>
			<polygon class="st13" points="180,41.4 106,108 180,108 			"/>
			<polygon class="st14" points="180,43.2 108,108 180,108 			"/>
		</g>
	</g>
	<g>
		<path class="st10" d="M212.8,72.7l3.8-27l-11.3,27h-8.2l1.2-27.1l-10,27.1h-4.8l15.2-41.2c-3,1-5.3,2.6-7,4.9
			c-1.7,2.3-2.5,5.1-2.5,8.6c0,0.8,0,1.4,0.1,1.9c0.1,0.5,0.2,0.9,0.3,1.1c0.1,0.3,0.2,0.5,0.3,0.6s0.1,0.3,0.1,0.4
			c-1,0-1.9-0.1-2.7-0.3c-0.8-0.2-1.5-0.5-2-0.9c-0.6-0.4-1-1-1.3-1.7c-0.3-0.7-0.5-1.5-0.5-2.5c0-1.3,0.3-2.5,0.8-3.8
			s1.2-2.5,2.1-3.7c0.9-1.2,2-2.3,3.2-3.3s2.6-1.9,4-2.7s2.9-1.4,4.4-1.8c1.5-0.4,3.1-0.6,4.6-0.6c1.5,0,3,0.3,4.5,0.8l-1.4,31.6
			l13.2-31.6h8.6l-6.3,44.2H212.8z"/>
		<path class="st10" d="M260.8,62c-0.6,1.6-1.2,3-1.8,4.2s-1.4,2.2-2.1,3s-1.4,1.5-2.2,2s-1.5,0.9-2.2,1.2s-1.4,0.5-2,0.6
			c-0.6,0.1-1.2,0.1-1.8,0.1c-1.7,0-3.1-0.5-4.1-1.4s-1.6-2.3-1.8-4.1c-0.5,0.7-1,1.4-1.6,2s-1.2,1.2-2,1.8s-1.5,0.9-2.4,1.3
			s-1.9,0.5-2.9,0.5c-1,0-2-0.2-3-0.5s-1.8-0.9-2.5-1.6s-1.3-1.8-1.8-3s-0.7-2.7-0.7-4.5c0-1.4,0.1-2.8,0.4-4.4s0.7-3.1,1.3-4.7
			s1.3-3.1,2.1-4.5s1.8-2.7,3-3.8c1.1-1.1,2.4-2,3.9-2.6c1.4-0.7,3-1,4.8-1c1.7,0,2.9,0.3,3.7,0.9s1.2,1.3,1.2,2.2v0.4l0.6-3.2h8.6
			l-4.3,20.4c-0.1,0.3-0.2,0.7-0.2,1s-0.1,0.6-0.1,1c0,1.7,0.8,2.6,2.5,2.6c0.6,0,1.1-0.2,1.6-0.5s1-0.7,1.4-1.2s0.8-1.1,1.1-1.8
			s0.6-1.4,0.8-2.2H260.8z M245.7,48.4c0-0.2,0-0.4-0.1-0.7s-0.2-0.5-0.4-0.8c-0.2-0.2-0.4-0.4-0.7-0.6c-0.3-0.2-0.7-0.2-1.2-0.2
			c-0.8,0-1.6,0.3-2.4,0.8c-0.8,0.5-1.4,1.3-2.1,2.2s-1.2,1.9-1.7,3.1c-0.5,1.2-0.9,2.3-1.2,3.6c-0.3,1.2-0.6,2.4-0.8,3.6
			s-0.3,2.2-0.3,3.2c0,1.2,0.1,2,0.3,2.7s0.5,1.1,0.8,1.4s0.6,0.5,1,0.5s0.7,0.1,0.9,0.1c0.4,0,0.9-0.1,1.4-0.3s1-0.6,1.4-1
			s0.9-1,1.3-1.7s0.7-1.4,0.9-2.3L245.7,48.4z"/>
		<path class="st10" d="M252.8,87.7l10-47.2h8.6l-1,4.5c0.9-0.7,1.9-1.4,3-1.8c1.1-0.5,2.5-0.7,4-0.7c1,0,2,0.2,2.9,0.5
			s1.7,0.8,2.3,1.6s1.2,1.7,1.6,2.9c0.4,1.2,0.6,2.7,0.6,4.5c0,1.3-0.1,2.8-0.3,4.4c-0.2,1.6-0.5,3.1-1,4.7s-1,3.1-1.8,4.5
			s-1.6,2.7-2.7,3.9s-2.4,2-3.9,2.7s-3.2,1-5.1,1c-0.8,0-1.4-0.1-2-0.2s-1-0.3-1.5-0.5s-0.7-0.4-1-0.7s-0.5-0.5-0.7-0.8l-3.1,14.6
			L252.8,87.7z M266,66.5c0.1,0.3,0.4,0.6,0.7,0.9s0.9,0.4,1.6,0.4c1.1,0,2-0.3,2.8-0.8s1.5-1.2,2.2-2.1s1.2-1.9,1.6-3
			s0.8-2.3,1.1-3.5s0.5-2.4,0.6-3.5c0.1-1.2,0.2-2.2,0.2-3.1c0-1.2-0.1-2.1-0.3-2.7c-0.2-0.7-0.5-1.2-0.8-1.5
			c-0.3-0.3-0.6-0.5-1-0.6s-0.7-0.1-0.9-0.1c-0.7,0-1.4,0.2-2.2,0.7s-1.4,1.2-2,2.2L266,66.5z"/>
		<path class="st10" d="M304.9,62c-0.6,1.6-1.2,3-1.9,4.2s-1.4,2.2-2.2,3s-1.5,1.5-2.3,2s-1.6,0.9-2.3,1.2s-1.5,0.5-2.1,0.6
			c-0.7,0.1-1.3,0.1-1.8,0.1c-0.9,0-1.7-0.1-2.5-0.4s-1.5-0.7-2-1.3s-1-1.3-1.4-2.2s-0.5-2-0.5-3.3c0-0.5,0-1.1,0.1-1.8
			s0.2-1.4,0.4-2.1l6.4-30.1l8.9-1.2l-6.9,32.4c-0.1,0.3-0.2,0.7-0.2,1s0,0.6,0,1c0,0.8,0.2,1.4,0.6,1.7s1,0.5,1.8,0.5
			c0.6,0,1.2-0.1,1.7-0.4s1.1-0.6,1.5-1.1s0.9-1,1.3-1.7s0.7-1.4,0.9-2.1H304.9z"/>
		<path class="st10" d="M327.5,62c-0.8,1.4-1.8,2.8-2.9,4.1s-2.3,2.5-3.7,3.5s-2.9,1.9-4.5,2.5c-1.7,0.6-3.5,1-5.4,1
			c-1.4,0-2.7-0.2-3.9-0.5s-2.1-0.9-3-1.7s-1.5-1.7-1.9-2.9s-0.7-2.7-0.7-4.4c0-1.2,0.1-2.5,0.4-4s0.6-3,1.1-4.6s1.2-3.1,2-4.7
			s1.9-2.9,3-4.1s2.6-2.2,4.2-2.9s3.4-1.1,5.5-1.1c1.3,0,2.4,0.2,3.3,0.5s1.5,0.7,2,1.3s0.8,1.1,1,1.8c0.2,0.7,0.3,1.4,0.3,2.2
			c0,1.7-0.4,3.4-1.1,4.8s-1.8,2.8-3.1,3.9s-2.7,2-4.4,2.7s-3.4,1.1-5.2,1.2c0,0.4-0.1,0.9-0.1,1.3s0,0.8,0,1.1c0,1,0.1,1.9,0.3,2.5
			s0.5,1.2,0.8,1.5s0.8,0.6,1.3,0.8s1.2,0.2,1.9,0.2c1.2,0,2.3-0.2,3.2-0.5s1.9-0.7,2.7-1.3s1.6-1.2,2.4-1.9s1.5-1.5,2.3-2.4H327.5z
			 M311.1,57.7c1.1-0.1,2.2-0.4,3.3-1s2-1.3,2.8-2.2s1.4-1.9,1.9-3.1c0.5-1.2,0.7-2.4,0.7-3.6c0-0.7-0.1-1.3-0.3-1.8
			c-0.2-0.4-0.6-0.7-1.2-0.7c-0.8,0-1.5,0.4-2.2,1.1s-1.4,1.7-2.1,2.9s-1.2,2.5-1.7,4C311.8,54.8,311.4,56.2,311.1,57.7z"/>
		<path class="st10" d="M323.1,72.7l6.4-30h8.6l-0.8,3.7c0.5-0.5,1.1-0.9,1.6-1.4c0.5-0.4,1.1-0.8,1.7-1.2c0.6-0.3,1.2-0.6,1.9-0.8
			c0.6-0.2,1.3-0.3,2.1-0.3c0.7,0,1.3,0.1,1.8,0.4c0.5,0.3,1,0.6,1.3,1s0.6,0.9,0.8,1.4c0.2,0.5,0.3,1.1,0.3,1.7
			c0,0.5-0.1,1.1-0.3,1.6c-0.2,0.5-0.4,1-0.8,1.4s-0.8,0.7-1.4,1s-1.2,0.4-1.9,0.4c-0.6,0-1-0.1-1.3-0.3c-0.3-0.2-0.5-0.4-0.7-0.7
			s-0.3-0.6-0.3-1c-0.1-0.3-0.1-0.7-0.2-1s-0.2-0.5-0.3-0.7c-0.1-0.2-0.3-0.3-0.6-0.3c-0.9,0-1.7,0.2-2.3,0.6
			c-0.6,0.4-1.3,1-2.1,1.7l-4.8,22.8H323.1z"/>
	</g>
	<g>
		<path d="M285.8,89.5l1-5.8h-1l0.1-0.6h1l0.1-0.9c0.1-0.6,0.3-1.1,0.7-1.4s0.8-0.5,1.4-0.5c0.2,0,0.5,0,0.8,0.1l-0.1,0.6
			c-0.2-0.1-0.4-0.1-0.6-0.1c-0.4,0-0.7,0.1-1,0.4s-0.4,0.6-0.5,1.1l-0.1,0.8h1.5l-0.1,0.6h-1.5l-1,5.8H285.8z"/>
		<path d="M289.4,86.3c0.1-0.6,0.3-1.2,0.6-1.7s0.7-0.9,1.1-1.2s0.9-0.4,1.5-0.4c0.5,0,1,0.2,1.3,0.4s0.6,0.7,0.8,1.1s0.2,1,0.2,1.6
			l0,0.1c-0.1,1-0.5,1.8-1.1,2.4s-1.3,0.9-2.1,0.9c-0.7,0-1.3-0.3-1.7-0.8s-0.6-1.2-0.6-2l0-0.3L289.4,86.3z M290,86.5
			c-0.1,0.5,0,0.9,0.1,1.3s0.3,0.7,0.6,0.9s0.6,0.3,1,0.4c0.4,0,0.8-0.1,1.2-0.3s0.6-0.5,0.9-0.9s0.4-0.9,0.4-1.3l0-0.2
			c0.1-0.8,0-1.4-0.3-1.8s-0.7-0.7-1.3-0.7c-0.6,0-1.2,0.2-1.6,0.7s-0.7,1.2-0.8,2L290,86.5z"/>
		<path d="M299.6,83.8c-0.2,0-0.3,0-0.5-0.1c-0.4,0-0.9,0.1-1.2,0.4s-0.6,0.6-0.7,1l-0.8,4.4h-0.7l1.1-6.3h0.7l-0.2,1
			c0.2-0.4,0.5-0.7,0.8-0.9s0.7-0.3,1.1-0.3c0.1,0,0.3,0,0.5,0.1L299.6,83.8z"/>
		<path class="st15" d="M307.7,87.1h-3.7l-1.3,2.4h-0.8l4.6-8.5h0.7l1.6,8.5h-0.7L307.7,87.1z M304.3,86.5h3.3l-0.8-4.6L304.3,86.5z
			"/>
		<path class="st15" d="M311.7,83.2l-0.2,1.1c0.3-0.4,0.6-0.7,1-0.9s0.8-0.3,1.2-0.3c0.6,0,1.1,0.2,1.3,0.6s0.4,1,0.3,1.7l-0.7,4.1
			h-0.7l0.7-4.1c0-0.2,0-0.4,0-0.6c-0.1-0.7-0.4-1.1-1.1-1.1c-0.4,0-0.8,0.1-1.1,0.4c-0.4,0.3-0.7,0.6-0.9,1.1l-0.8,4.3H310l1.1-6.3
			H311.7z"/>
		<path class="st15" d="M316.7,86.3c0.1-0.7,0.3-1.3,0.5-1.8s0.6-0.9,1-1.1s0.8-0.4,1.3-0.4c0.4,0,0.7,0.1,1,0.3s0.6,0.4,0.7,0.8
			l0.6-3.6h0.7l-1.6,9h-0.7l0.2-0.8c-0.6,0.7-1.2,1-2.1,1c-0.6,0-1.1-0.2-1.4-0.7s-0.5-1-0.5-1.8c0-0.2,0-0.5,0-0.7L316.7,86.3z
			 M317.4,86.4c0,0.3,0,0.5,0,0.8c0,0.5,0.1,1,0.4,1.3s0.6,0.5,1,0.5c0.4,0,0.8-0.1,1.1-0.3c0.3-0.2,0.6-0.5,0.8-0.8l0.5-3
			c-0.1-0.4-0.3-0.7-0.6-0.9c-0.3-0.2-0.6-0.3-1-0.3c-0.6,0-1.1,0.2-1.5,0.7c-0.4,0.5-0.7,1.1-0.8,2L317.4,86.4z"/>
		<path class="st15" d="M326.8,83.8c-0.2,0-0.3,0-0.5-0.1c-0.4,0-0.9,0.1-1.2,0.4s-0.6,0.6-0.7,1l-0.8,4.4h-0.7l1.1-6.3h0.7l-0.2,1
			c0.2-0.4,0.5-0.7,0.8-0.9s0.7-0.3,1.1-0.3c0.1,0,0.3,0,0.5,0.1L326.8,83.8z"/>
		<path class="st15" d="M327,86.3c0.1-0.6,0.3-1.2,0.6-1.7s0.7-0.9,1.1-1.2s0.9-0.4,1.5-0.4c0.5,0,1,0.2,1.3,0.4s0.6,0.7,0.8,1.1
			s0.2,1,0.2,1.6l0,0.1c-0.1,1-0.5,1.8-1.1,2.4s-1.3,0.9-2.1,0.9c-0.7,0-1.3-0.3-1.7-0.8s-0.6-1.2-0.6-2l0-0.3L327,86.3z
			 M327.6,86.5c-0.1,0.5,0,0.9,0.1,1.3s0.3,0.7,0.6,0.9s0.6,0.3,1,0.4c0.4,0,0.8-0.1,1.2-0.3s0.6-0.5,0.9-0.9s0.4-0.9,0.4-1.3l0-0.2
			c0.1-0.8,0-1.4-0.3-1.8s-0.7-0.7-1.3-0.7c-0.6,0-1.2,0.2-1.6,0.7s-0.7,1.2-0.8,2L327.6,86.5z"/>
		<path class="st15" d="M334.1,89.5h-0.7l1.1-6.3h0.7L334.1,89.5z M334.7,81.3c0-0.3,0.2-0.4,0.5-0.5c0.2,0,0.3,0.1,0.3,0.1
			s0.1,0.2,0.1,0.3c0,0.1-0.1,0.3-0.2,0.3s-0.2,0.1-0.3,0.1C334.9,81.8,334.7,81.6,334.7,81.3z"/>
		<path class="st15" d="M336.3,86.3c0.1-0.7,0.3-1.3,0.5-1.8s0.6-0.9,1-1.1s0.8-0.4,1.3-0.4c0.4,0,0.7,0.1,1,0.3s0.6,0.4,0.7,0.8
			l0.6-3.6h0.7l-1.6,9h-0.7l0.2-0.8c-0.6,0.7-1.2,1-2.1,1c-0.6,0-1.1-0.2-1.4-0.7s-0.5-1-0.5-1.8c0-0.2,0-0.5,0-0.7L336.3,86.3z
			 M337,86.4c0,0.3,0,0.5,0,0.8c0,0.5,0.1,1,0.4,1.3s0.6,0.5,1,0.5c0.4,0,0.8-0.1,1.1-0.3c0.3-0.2,0.6-0.5,0.8-0.8l0.5-3
			c-0.1-0.4-0.3-0.7-0.6-0.9c-0.3-0.2-0.6-0.3-1-0.3c-0.6,0-1.1,0.2-1.5,0.7c-0.4,0.5-0.7,1.1-0.8,2L337,86.4z"/>
		<path class="st15" d="M345.9,81.4H345l-0.5,2.7h-0.4l0.5-2.7h-0.9l0-0.4h2.2L345.9,81.4z M348.8,81.8l-1.2,2.3l-0.3,0l-0.4-2.5
			l-0.4,2.5h-0.4l0.5-3.1h0.5l0.5,2.5l1.3-2.5h0.5l-0.5,3.1h-0.4L348.8,81.8z"/>
	</g>
	<g>
	</g>
	<g>
	</g>
	<g>
	</g>
	<g>
	</g>
	<g>
	</g>
	<g>
	</g>
	<g>
	</g>
	<g>
	</g>
	<g>
	</g>
	<g>
	</g>
	<g>
	</g>
</g>
</svg>
