<svg xmlns="http://www.w3.org/2000/svg" xmlns:xlink="http://www.w3.org/1999/xlink" viewBox="0 0 540 108"><defs><clipPath id="clip-path"><circle cx="111" cy="54" r="36" style="fill:none"/></clipPath><linearGradient id="未命名的渐变_17" x1="115.86" y1="58.86" x2="149.18" y2="92.18" gradientUnits="userSpaceOnUse"><stop offset="0" stop-opacity="0.4"/><stop offset="1" stop-opacity="0"/></linearGradient><linearGradient id="未命名的渐变_18" x1="127.99" y1="74.69" x2="161.13" y2="111.49" gradientUnits="userSpaceOnUse"><stop offset="0" stop-color="#004d85" stop-opacity="0"/><stop offset="0.08" stop-color="#004d85" stop-opacity="0.5"/></linearGradient></defs><title>Icon-4-r</title><g id="foreground"><g style="clip-path:url(#clip-path)"><rect x="57" width="108" height="108" transform="translate(222 108) rotate(180)" style="fill:#e6e4e0"/><path d="M165,108V10H120V46a17,17,0,0,1-17,17H87v45Z" style="fill:#b7e4a1"/><rect x="143" width="8" height="108" style="fill:#79cfee"/><rect x="57" y="7" width="108" height="6" transform="translate(222 20) rotate(180)" style="fill:silver"/><rect x="57" y="8" width="108" height="4" transform="translate(222 20) rotate(180)" style="fill:#fff"/><path d="M124,0V48a19,19,0,0,1-19,19H57V59h48a11,11,0,0,0,11-11V0Z" style="fill:#fff"/><path d="M123,0V48a18,18,0,0,1-18,18H57V60h48a12,12,0,0,0,12-12V0Z" style="fill:#fda263"/><rect x="57" y="17" width="48" height="31" transform="translate(162 65) rotate(180)" style="fill:#cdcac6"/><rect x="57" y="18" width="47" height="29" transform="translate(161 65) rotate(180)" style="fill:#dcd9d6"/><rect x="57" width="108" height="108" style="fill:none"/><path d="M57,0V108H165V0Zm54,78a24,24,0,1,1,24-24A24,24,0,0,1,111,78Z" style="fill:#283d55"/><path d="M132.12,42.59A24,24,0,0,1,99.59,75.12l33.33,33.33,32.53-32.53Z" style="fill:url(#未命名的渐变_17)"/><polygon points="165 27 75 108 165 108 165 27" style="fill:#2578b5"/><polygon points="165 41.4 91 108 165 108 165 41.4" style="fill:url(#未命名的渐变_18)"/><polygon points="165 43.2 93 108 165 108 165 43.2" style="fill:#63a7e7"/></g><path d="M201.09,72.72l-.7-30.53L189,72.72h-8.65l-1-41a13.6,13.6,0,0,0-6.58,5,14.23,14.23,0,0,0-2.36,8.37,10.34,10.34,0,0,0,.13,1.86,8.44,8.44,0,0,0,.28,1.15,4.49,4.49,0,0,0,.28.66.81.81,0,0,1,.13.41,11.38,11.38,0,0,1-2.75-.31,5.11,5.11,0,0,1-2-1,4.22,4.22,0,0,1-1.23-1.79,7.82,7.82,0,0,1-.43-2.75,9.5,9.5,0,0,1,.87-3.93,14.58,14.58,0,0,1,2.37-3.66,20.7,20.7,0,0,1,3.55-3.19A25.47,25.47,0,0,1,176,30a26.15,26.15,0,0,1,4.87-1.67,21.78,21.78,0,0,1,5-.6c.45,0,.86,0,1.24,0l1.16.09.53,36.91L201.48,28h7.61l.53,36.74L222.22,28h4.22l-16.7,44.71Z" style="fill:#283d55"/><path d="M256.29,62a26.74,26.74,0,0,1-1.85,4.22,18.23,18.23,0,0,1-2.06,3,11.68,11.68,0,0,1-2.18,2A10.81,10.81,0,0,1,248,72.37a9.92,9.92,0,0,1-2,.56,12.93,12.93,0,0,1-1.76.14,5.75,5.75,0,0,1-4.06-1.39,6.47,6.47,0,0,1-1.83-4.12,23.23,23.23,0,0,1-1.61,2,12.14,12.14,0,0,1-2,1.76,9.92,9.92,0,0,1-2.42,1.26,8.65,8.65,0,0,1-3,.48,8.8,8.8,0,0,1-3-.5,6.36,6.36,0,0,1-2.55-1.64,8.28,8.28,0,0,1-1.79-3,13.3,13.3,0,0,1-.67-4.52,24.92,24.92,0,0,1,.41-4.39,27.18,27.18,0,0,1,1.26-4.69,26.37,26.37,0,0,1,2.12-4.5,18.12,18.12,0,0,1,3-3.8,13.47,13.47,0,0,1,3.88-2.64,11.39,11.39,0,0,1,4.78-1,6.12,6.12,0,0,1,3.7.88,2.63,2.63,0,0,1,1.16,2.16v.44l.64-3.19H251l-4.31,20.39a5.93,5.93,0,0,0-.21,1c0,.33-.05.64-.05,1q0,2.58,2.46,2.58a3.07,3.07,0,0,0,1.62-.45A5.21,5.21,0,0,0,251.9,66a8,8,0,0,0,1.08-1.8,15.23,15.23,0,0,0,.79-2.18ZM241.17,48.43a2.8,2.8,0,0,0-.11-.66,2.43,2.43,0,0,0-.4-.76,2.19,2.19,0,0,0-.75-.61,2.49,2.49,0,0,0-1.2-.25,4,4,0,0,0-2.39.82,8.82,8.82,0,0,0-2.06,2.18,17.36,17.36,0,0,0-1.67,3.09,31.25,31.25,0,0,0-1.25,3.56,28.41,28.41,0,0,0-.77,3.61,21.28,21.28,0,0,0-.27,3.17,8.41,8.41,0,0,0,.33,2.67,3.53,3.53,0,0,0,.77,1.39,1.79,1.79,0,0,0,1,.54,5.79,5.79,0,0,0,.94.09,3.38,3.38,0,0,0,1.42-.34,5,5,0,0,0,1.44-1,7.16,7.16,0,0,0,1.26-1.66A8,8,0,0,0,238.3,62Z" style="fill:#283d55"/><path d="M272.32,62a25,25,0,0,1-1.89,4.22,18.38,18.38,0,0,1-2.17,3,11.94,11.94,0,0,1-2.32,2,11.35,11.35,0,0,1-2.3,1.17,11,11,0,0,1-2.12.56,13.74,13.74,0,0,1-1.8.14,7.4,7.4,0,0,1-2.52-.41,5.22,5.22,0,0,1-2-1.29,6.22,6.22,0,0,1-1.36-2.22,9.51,9.51,0,0,1-.5-3.26,15.07,15.07,0,0,1,.12-1.8c.08-.65.19-1.36.35-2.12l6.42-30.06,8.87-1.2-6.88,32.4a5,5,0,0,0-.19,1c0,.33-.05.64-.05,1a2.18,2.18,0,0,0,.59,1.75,2.91,2.91,0,0,0,1.85.48,4,4,0,0,0,1.71-.39,5.59,5.59,0,0,0,1.54-1.1,7.67,7.67,0,0,0,1.26-1.69A10.92,10.92,0,0,0,269.8,62Z" style="fill:#283d55"/><path d="M288.34,62a25,25,0,0,1-1.89,4.22,17.28,17.28,0,0,1-2.17,3,11.9,11.9,0,0,1-2.31,2,11.62,11.62,0,0,1-2.3,1.17,10.85,10.85,0,0,1-2.13.56,13.74,13.74,0,0,1-1.8.14,7.4,7.4,0,0,1-2.52-.41,5.11,5.11,0,0,1-2-1.29,6.08,6.08,0,0,1-1.36-2.22,9.27,9.27,0,0,1-.5-3.26,17.3,17.3,0,0,1,.11-1.8c.08-.65.2-1.36.36-2.12l6.41-30.06,8.88-1.2-6.89,32.4a5.84,5.84,0,0,0-.19,1c0,.33,0,.64,0,1a2.18,2.18,0,0,0,.59,1.75,2.87,2.87,0,0,0,1.84.48,4,4,0,0,0,1.72-.39,5.7,5.7,0,0,0,1.53-1.1,7.67,7.67,0,0,0,1.26-1.69,10.34,10.34,0,0,0,.91-2.12Z" style="fill:#283d55"/><path d="M333.46,62a26.64,26.64,0,0,1-2.71,5.89,14.28,14.28,0,0,1-2.93,3.35,7.79,7.79,0,0,1-2.9,1.51,10.7,10.7,0,0,1-2.62.35A8.56,8.56,0,0,1,319,72.5,5.76,5.76,0,0,1,316.79,71a6,6,0,0,1-1.19-2.17,8.81,8.81,0,0,1-.36-2.51,17.83,17.83,0,0,1,.42-3.55c.28-1.36.59-2.75.92-4.18s.64-2.8.93-4.13a17,17,0,0,0,.42-3.43c0-2-.72-3.07-2.17-3.07a2.77,2.77,0,0,0-1.52.44A4.91,4.91,0,0,0,313,49.56a9,9,0,0,0-1.05,1.76,15.21,15.21,0,0,0-.82,2.15L307,72.72h-8.64L302.75,52a6,6,0,0,0,.18-1.5,5.21,5.21,0,0,0-.09-1,2.79,2.79,0,0,0-.3-.84,1.83,1.83,0,0,0-.56-.58,1.54,1.54,0,0,0-.87-.22,3.08,3.08,0,0,0-1.62.44,4.75,4.75,0,0,0-1.35,1.2,8.75,8.75,0,0,0-1.07,1.78,19.89,19.89,0,0,0-.82,2.17l-4.07,19.25h-8.64l6.35-30h8.65l-.65,3.11a10.57,10.57,0,0,1,1.94-1.75,9.06,9.06,0,0,1,1.9-1,8.14,8.14,0,0,1,1.82-.5,10.9,10.9,0,0,1,1.67-.13,8.11,8.11,0,0,1,2.19.28,5,5,0,0,1,1.82.89,5.2,5.2,0,0,1,1.35,1.6,7.32,7.32,0,0,1,.79,2.38,13.23,13.23,0,0,1,2.22-2.68,10.35,10.35,0,0,1,2.23-1.53,7.77,7.77,0,0,1,2.08-.71,10.27,10.27,0,0,1,1.82-.17,8.66,8.66,0,0,1,2.65.38,5.45,5.45,0,0,1,2.11,1.2,5.56,5.56,0,0,1,1.39,2.11,8.55,8.55,0,0,1,.5,3.07,17.54,17.54,0,0,1-.22,2.6c-.15.92-.32,1.87-.53,2.84s-.43,1.93-.69,2.88-.48,1.88-.69,2.76-.38,1.69-.52,2.44a10.37,10.37,0,0,0-.22,2,3,3,0,0,0,.51,1.82,2.19,2.19,0,0,0,1.89.7,3.7,3.7,0,0,0,1.7-.38,4.19,4.19,0,0,0,1.32-1.08A8.76,8.76,0,0,0,330,64.12c.32-.65.64-1.37.95-2.15Z" style="fill:#283d55"/><path d="M365,62a27.73,27.73,0,0,1-1.84,4.22,18.88,18.88,0,0,1-2.07,3,11.68,11.68,0,0,1-2.18,2,10.81,10.81,0,0,1-2.17,1.17,9.92,9.92,0,0,1-2,.56,12.93,12.93,0,0,1-1.76.14,5.75,5.75,0,0,1-4.06-1.39,6.47,6.47,0,0,1-1.83-4.12,21.47,21.47,0,0,1-1.61,2,12.14,12.14,0,0,1-2,1.76,9.92,9.92,0,0,1-2.42,1.26,8.63,8.63,0,0,1-2.94.48,8.81,8.81,0,0,1-3-.5,6.36,6.36,0,0,1-2.55-1.64,8.28,8.28,0,0,1-1.79-3,13.3,13.3,0,0,1-.67-4.52,24.92,24.92,0,0,1,.41-4.39,27.18,27.18,0,0,1,1.26-4.69,26.37,26.37,0,0,1,2.12-4.5,18.12,18.12,0,0,1,3-3.8,13.47,13.47,0,0,1,3.88-2.64,11.39,11.39,0,0,1,4.78-1,6.12,6.12,0,0,1,3.7.88,2.63,2.63,0,0,1,1.16,2.16v.44l.64-3.19h8.65l-4.31,20.39a5,5,0,0,0-.2,1,7.82,7.82,0,0,0-.06,1q0,2.58,2.46,2.58a3.07,3.07,0,0,0,1.62-.45A5.21,5.21,0,0,0,360.62,66a8,8,0,0,0,1.08-1.8,15.23,15.23,0,0,0,.79-2.18ZM349.89,48.43a2.8,2.8,0,0,0-.11-.66,2.43,2.43,0,0,0-.4-.76,2.1,2.1,0,0,0-.75-.61,2.49,2.49,0,0,0-1.2-.25A4,4,0,0,0,345,47,8.82,8.82,0,0,0,343,49.15a17.36,17.36,0,0,0-1.67,3.09,31.25,31.25,0,0,0-1.25,3.56,28.41,28.41,0,0,0-.77,3.61,21.28,21.28,0,0,0-.27,3.17,8.41,8.41,0,0,0,.33,2.67,3.53,3.53,0,0,0,.77,1.39,1.79,1.79,0,0,0,1,.54,5.79,5.79,0,0,0,.94.09,3.38,3.38,0,0,0,1.42-.34,5,5,0,0,0,1.44-1,7.16,7.16,0,0,0,1.26-1.66A8,8,0,0,0,347,62Z" style="fill:#283d55"/><path d="M357,87.72l10-47.23h8.64l-1,4.52a11.87,11.87,0,0,1,3-1.85,10,10,0,0,1,4-.73,8.52,8.52,0,0,1,2.87.48,5.6,5.6,0,0,1,2.33,1.58,8,8,0,0,1,1.55,2.92,15.12,15.12,0,0,1,.57,4.48,38.61,38.61,0,0,1-.27,4.38,30.4,30.4,0,0,1-1,4.72,26.37,26.37,0,0,1-1.77,4.54,15,15,0,0,1-2.74,3.85,12.69,12.69,0,0,1-3.88,2.68,12.28,12.28,0,0,1-5.14,1,10.47,10.47,0,0,1-2-.17,6.5,6.5,0,0,1-1.45-.47,3.83,3.83,0,0,1-1-.69,4.89,4.89,0,0,1-.66-.81l-3.11,14.62Zm13.13-21.24a2.15,2.15,0,0,0,.71.94,2.49,2.49,0,0,0,1.57.44,5,5,0,0,0,2.81-.81,8,8,0,0,0,2.17-2.14,13.55,13.55,0,0,0,1.58-3,25.6,25.6,0,0,0,1.06-3.49,31.76,31.76,0,0,0,.6-3.53,28.43,28.43,0,0,0,.19-3.15,9.31,9.31,0,0,0-.32-2.72,4.2,4.2,0,0,0-.78-1.49,1.88,1.88,0,0,0-1-.63,3.82,3.82,0,0,0-.94-.14,3.91,3.91,0,0,0-2.15.75,6.62,6.62,0,0,0-2,2.21Z" style="fill:#283d55"/><path d="M385.11,87.72l10-47.23h8.64l-1,4.52a11.93,11.93,0,0,1,3-1.85,10,10,0,0,1,4-.73,8.52,8.52,0,0,1,2.87.48A5.66,5.66,0,0,1,415,44.49a8,8,0,0,1,1.55,2.92,15.12,15.12,0,0,1,.57,4.48,36.55,36.55,0,0,1-.28,4.38,29.24,29.24,0,0,1-1,4.72,26.37,26.37,0,0,1-1.77,4.54,15.52,15.52,0,0,1-2.74,3.85,12.81,12.81,0,0,1-3.88,2.68,12.33,12.33,0,0,1-5.15,1,10.55,10.55,0,0,1-2-.17,6.68,6.68,0,0,1-1.45-.47,3.77,3.77,0,0,1-1-.69,4,4,0,0,1-.66-.81l-3.11,14.62Zm13.12-21.24a2.26,2.26,0,0,0,.72.94,2.45,2.45,0,0,0,1.57.44,5,5,0,0,0,2.81-.81,8.16,8.16,0,0,0,2.17-2.14,14,14,0,0,0,1.58-3,27.09,27.09,0,0,0,1.06-3.49,31.76,31.76,0,0,0,.6-3.53,31.09,31.09,0,0,0,.19-3.15A8.93,8.93,0,0,0,408.6,49a4,4,0,0,0-.77-1.49,1.88,1.88,0,0,0-1-.63,3.39,3.39,0,0,0-3.09.61,6.41,6.41,0,0,0-2,2.21Z" style="fill:#283d55"/><path d="M443.7,62a34.57,34.57,0,0,1-2.88,4.1,22,22,0,0,1-3.67,3.55,18,18,0,0,1-4.51,2.5,15.11,15.11,0,0,1-5.43.95,12.93,12.93,0,0,1-3.87-.54,7.65,7.65,0,0,1-3-1.68,7.51,7.51,0,0,1-1.89-2.95,12.68,12.68,0,0,1-.66-4.35,26.72,26.72,0,0,1,.35-4,30.78,30.78,0,0,1,1.12-4.63,26.38,26.38,0,0,1,2-4.66,18.17,18.17,0,0,1,3.05-4.09,14,14,0,0,1,4.19-2.9,13,13,0,0,1,5.47-1.1,9.26,9.26,0,0,1,3.3.49,5.26,5.26,0,0,1,2,1.27,4.28,4.28,0,0,1,1,1.83,8.58,8.58,0,0,1,.28,2.16,10.53,10.53,0,0,1-1.15,4.84,12.93,12.93,0,0,1-3.06,3.92A15.85,15.85,0,0,1,432,59.39a16.5,16.5,0,0,1-5.18,1.2c0,.45-.08.88-.11,1.28s0,.77,0,1.12A9.25,9.25,0,0,0,427,65.5a3.53,3.53,0,0,0,.82,1.54,2.84,2.84,0,0,0,1.35.77,7,7,0,0,0,1.89.22,10.2,10.2,0,0,0,3.23-.47A11.41,11.41,0,0,0,437,66.28a15.5,15.5,0,0,0,2.39-1.94c.75-.74,1.51-1.53,2.27-2.37Zm-16.37-4.25a8.05,8.05,0,0,0,3.28-1,9.87,9.87,0,0,0,2.78-2.21,11.05,11.05,0,0,0,1.92-3.1,9.43,9.43,0,0,0,.72-3.62A4.12,4.12,0,0,0,435.7,46a1.17,1.17,0,0,0-1.17-.67,3.17,3.17,0,0,0-2.24,1.1,12.47,12.47,0,0,0-2.06,2.85,24.3,24.3,0,0,0-1.72,4A34.7,34.7,0,0,0,427.33,57.72Z" style="fill:#283d55"/><path d="M439.37,72.72l6.35-30h8.65l-.77,3.72q.79-.7,1.62-1.38a12.38,12.38,0,0,1,1.71-1.18,11.06,11.06,0,0,1,1.86-.84,6.57,6.57,0,0,1,2-.32,4.11,4.11,0,0,1,1.8.38,4,4,0,0,1,2.1,2.43,5.74,5.74,0,0,1,.26,1.7,5,5,0,0,1-.26,1.57,4.11,4.11,0,0,1-2.17,2.4,4.25,4.25,0,0,1-1.9.4,2.37,2.37,0,0,1-1.31-.3,1.93,1.93,0,0,1-.69-.73,3.34,3.34,0,0,1-.33-1c-.07-.34-.15-.66-.22-.95a2.47,2.47,0,0,0-.31-.73.7.7,0,0,0-.63-.3,4.08,4.08,0,0,0-2.32.63,18,18,0,0,0-2.05,1.66L448,72.72Z" style="fill:#283d55"/><path d="M400.76,89.51l1-5.77h-1l.1-.57h1l.12-.86a2.41,2.41,0,0,1,.71-1.45,2,2,0,0,1,1.41-.49,3.31,3.31,0,0,1,.77.11l-.12.58a2.37,2.37,0,0,0-.63-.08,1.3,1.3,0,0,0-1,.38,1.72,1.72,0,0,0-.48,1.06l-.12.75H404l-.11.57h-1.46l-1,5.77Z"/><path d="M404.35,86.28a4.14,4.14,0,0,1,.57-1.69,3.17,3.17,0,0,1,1.14-1.16,2.79,2.79,0,0,1,1.48-.38,2.2,2.2,0,0,1,1.33.43,2.39,2.39,0,0,1,.81,1.14,3.85,3.85,0,0,1,.18,1.61l0,.11a4,4,0,0,1-1.06,2.41,2.78,2.78,0,0,1-2.13.87,2.13,2.13,0,0,1-1.7-.78,3,3,0,0,1-.63-2l0-.33Zm.68.2a3.17,3.17,0,0,0,.11,1.28,1.87,1.87,0,0,0,.57.93,1.52,1.52,0,0,0,1,.35,2,2,0,0,0,1.15-.32,2.67,2.67,0,0,0,.87-1,3.9,3.9,0,0,0,.44-1.35v-.19a2.92,2.92,0,0,0-.34-1.85,1.51,1.51,0,0,0-1.32-.73,2,2,0,0,0-1.62.72,3.56,3.56,0,0,0-.84,2Z"/><path d="M414.64,83.76a2.5,2.5,0,0,0-.47-.05,2,2,0,0,0-1.22.4,1.92,1.92,0,0,0-.74,1l-.75,4.36h-.7l1.11-6.34h.68l-.21,1a2.51,2.51,0,0,1,.83-.85,1.94,1.94,0,0,1,1.08-.28,1.84,1.84,0,0,1,.48.08Z"/><path d="M422.68,87.11h-3.74l-1.27,2.4h-.78L421.5,81h.69l1.65,8.53h-.71Zm-3.41-.61h3.29l-.84-4.62Z" style="fill:#78c257"/><path d="M426.72,83.17l-.21,1.08a3.08,3.08,0,0,1,1-.9,2.24,2.24,0,0,1,1.19-.3,1.56,1.56,0,0,1,1.33.64,2.51,2.51,0,0,1,.29,1.69l-.69,4.13h-.69l.69-4.14a4.58,4.58,0,0,0,0-.64,1.06,1.06,0,0,0-1.14-1.07,1.84,1.84,0,0,0-1.15.37,3.26,3.26,0,0,0-.93,1.13l-.75,4.35H425l1.1-6.34Z" style="fill:#78c257"/><path d="M431.69,86.32a5.39,5.39,0,0,1,.54-1.77,3,3,0,0,1,1-1.14,2.34,2.34,0,0,1,1.33-.36,2.22,2.22,0,0,1,1,.26,1.88,1.88,0,0,1,.73.75l.64-3.55h.69l-1.56,9h-.65l.16-.85a2.43,2.43,0,0,1-2.05,1,1.69,1.69,0,0,1-1.39-.68,3,3,0,0,1-.52-1.79,4.13,4.13,0,0,1,0-.71Zm.7.12a5.6,5.6,0,0,0,0,.83,2.1,2.1,0,0,0,.37,1.26,1.2,1.2,0,0,0,1,.48,1.89,1.89,0,0,0,1.14-.29,2.8,2.8,0,0,0,.84-.84l.51-3a1.84,1.84,0,0,0-.56-.89,1.63,1.63,0,0,0-1-.34,1.77,1.77,0,0,0-1.48.68,3.82,3.82,0,0,0-.77,2Z" style="fill:#78c257"/><path d="M441.81,83.76a2.5,2.5,0,0,0-.47-.05,2,2,0,0,0-1.22.4,1.92,1.92,0,0,0-.74,1l-.76,4.36h-.69L439,83.17h.68l-.21,1a2.51,2.51,0,0,1,.83-.85,1.94,1.94,0,0,1,1.08-.28,1.84,1.84,0,0,1,.48.08Z" style="fill:#78c257"/><path d="M442,86.28a4.28,4.28,0,0,1,.56-1.69,3.34,3.34,0,0,1,1.14-1.16,2.84,2.84,0,0,1,1.48-.38,2.23,2.23,0,0,1,1.34.43,2.39,2.39,0,0,1,.81,1.14,3.69,3.69,0,0,1,.17,1.61v.11a4,4,0,0,1-1.06,2.41,2.81,2.81,0,0,1-2.13.87,2.15,2.15,0,0,1-1.71-.78,3,3,0,0,1-.63-2l0-.33Zm.68.2a3.17,3.17,0,0,0,.1,1.28,1.94,1.94,0,0,0,.57.93,1.54,1.54,0,0,0,1,.35,2.05,2.05,0,0,0,1.16-.32,2.56,2.56,0,0,0,.86-1,3.52,3.52,0,0,0,.44-1.35l0-.19a2.92,2.92,0,0,0-.35-1.85,1.48,1.48,0,0,0-1.31-.73,2,2,0,0,0-1.62.72,3.49,3.49,0,0,0-.84,2Z" style="fill:#78c257"/><path d="M449.15,89.51h-.7l1.1-6.34h.7Zm.6-8.18c0-.25.18-.41.5-.48a.63.63,0,0,1,.33.15.6.6,0,0,1,.12.33.64.64,0,0,1-.17.33.63.63,0,0,1-.33.15Q449.72,81.74,449.75,81.33Z" style="fill:#78c257"/><path d="M451.32,86.32a5.39,5.39,0,0,1,.54-1.77,2.91,2.91,0,0,1,1-1.14,2.34,2.34,0,0,1,1.33-.36,2.17,2.17,0,0,1,1,.26,1.84,1.84,0,0,1,.74.75l.64-3.55h.69l-1.56,9h-.65l.16-.85a2.43,2.43,0,0,1-2.05,1,1.69,1.69,0,0,1-1.39-.68,3,3,0,0,1-.52-1.79,5.51,5.51,0,0,1,0-.71Zm.7.12a7.33,7.33,0,0,0,0,.83,2.1,2.1,0,0,0,.38,1.26,1.2,1.2,0,0,0,1,.48,1.91,1.91,0,0,0,1.14-.29,2.66,2.66,0,0,0,.83-.84l.51-3a1.77,1.77,0,0,0-.56-.89,1.6,1.6,0,0,0-1-.34,1.77,1.77,0,0,0-1.48.68,3.73,3.73,0,0,0-.77,2Z" style="fill:#78c257"/><path d="M460.94,81.38H460l-.46,2.74h-.43l.46-2.74h-.88l0-.4H461Zm2.82.39-1.25,2.35h-.3l-.44-2.47-.42,2.47h-.43l.53-3.14H462l.47,2.49L463.77,81h.55l-.54,3.14h-.42Z" style="fill:#78c257"/></g></svg>